C:\Users\israe\Dropbox\PhDWork\ExperimentalData\subject2\055\P2S055W02_filtered35.mot
nRows=13
nColumns=28

name C:\Users\israe\Dropbox\PhDWork\ExperimentalData\subject2\055\P2S055W02_filtered35.mot
datacolumns 28
datarows 13
range 2.6700000000 2.6820000000
endheader
time	ground_force_1_vx	ground_force_1_vy	ground_force_1_vz	ground_force_1_px	ground_force_1_py	ground_force_1_pz	ground_moment_1_mx	ground_moment_1_my	ground_moment_1_mz	ground_force_2_vx	ground_force_2_vy	ground_force_2_vz	ground_force_2_px	ground_force_2_py	ground_force_2_pz	ground_moment_2_mx	ground_moment_2_my	ground_moment_2_mz	ground_force_3_vx	ground_force_3_vy	ground_force_3_vz	ground_force_3_px	ground_force_3_py	ground_force_3_pz	ground_moment_3_mx	ground_moment_3_my	ground_moment_3_mz
        2.6700000000	        0.0000000000	        0.0000000000	       -0.0000000000	        0.1988394961	        0.0000558755	       -0.3004071324	        0.0000000000	       -0.0000000000	       -0.0000000000	       -0.0000000000	        0.0000000000	       -0.0000000000	        0.2029003516	       -0.0000795827	        0.4543649445	       -0.0000000000	       -0.0000000000	        0.0000000000	       -0.0018755000	        0.0000000000	        0.0208088251	        0.2076431971	        0.0000770316	        1.3583900146	       -0.0134723616	        0.0018894518	        0.0061284581	
        2.6710000000	        0.0000000000	        0.0000000000	       -0.0000000000	        0.1988394961	        0.0000558755	       -0.3004071324	        0.0000000000	       -0.0000000000	       -0.0000000000	       -0.0000000000	        0.0000000000	       -0.0000000000	        0.2029003516	       -0.0000795827	        0.4543649445	       -0.0000000000	       -0.0000000000	        0.0000000000	       -0.0013143535	        0.0000000000	        0.0153175044	        0.2076431971	        0.0000770316	        1.3583900146	       -0.0058376274	        0.0014285269	        0.0026285223	
        2.6720000000	        0.0000000000	        0.0000000000	       -0.0000000000	        0.1988394961	        0.0000558755	       -0.3004071324	        0.0000000000	       -0.0000000000	       -0.0000000000	       -0.0000000000	        0.0000000000	       -0.0000000000	        0.2029003516	       -0.0000795827	        0.4543649445	       -0.0000000000	       -0.0000000000	        0.0000000000	       -0.0008511380	        0.0000000000	        0.0106306332	        0.2076431971	        0.0000770316	        1.3583900146	       -0.0002902287	        0.0010261736	        0.0000884505	
        2.6730000000	        0.0000000000	        0.0000000000	       -0.0000000000	        0.1988394961	        0.0000558755	       -0.3004071324	       -0.0000000000	       -0.0000000000	        0.0000000000	       -0.0000000000	        0.0000000000	       -0.0000000000	        0.2029003516	       -0.0000795827	        0.4543649445	       -0.0000000000	       -0.0000000000	        0.0000000000	       -0.0004834184	        0.0215845527	        0.0067834769	        0.2076431971	        0.0000770316	        1.3583900146	        0.0034928552	        0.0006887893	       -0.0016409822	
        2.6740000000	       -0.0000000000	        0.0000000000	       -0.0000000000	        0.1988394961	        0.0000558755	       -0.3004071324	       -0.0000000000	        0.0000000000	        0.0000000000	       -0.0000000000	        0.0000000000	       -0.0000000000	        0.2029003516	       -0.0000795827	        0.4543649445	       -0.0000000000	       -0.0000000000	        0.0000000000	       -0.0002035568	        0.0357673684	        0.0037473396	        0.2076431971	        0.0000770316	        1.3583900146	        0.0058414309	        0.0004166438	       -0.0027118591	
        2.6750000000	       -0.0000000000	        0.0000000000	       -0.0000000000	        0.1988394961	        0.0000558755	       -0.3004071324	       -0.0000000000	        0.0000000000	        0.0000000000	       -0.0000000000	        0.0000000000	       -0.0000000000	        0.2029003516	       -0.0000795827	        0.4543649445	       -0.0000000000	       -0.0000000000	        0.0000000000	       -0.0000008631	        0.0431511760	        0.0014519147	        0.2076431971	        0.0000770316	        1.3583900146	        0.0070692398	        0.0002058314	       -0.0032686711	
        2.6760000000	       -0.0000000000	        0.0000000000	        0.0000000000	        0.1988394961	        0.0000558755	       -0.3004071324	       -0.0000000000	        0.0000000000	        0.0000000000	       -0.0000000000	        0.0000000000	       -0.0000000000	        0.2029003516	       -0.0000795827	        0.4543649445	       -0.0000000000	       -0.0000000000	        0.0000000000	        0.0001367547	        0.0454578654	       -0.0001969380	        0.2076431971	        0.0000770316	        1.3583900146	        0.0074594558	        0.0000498572	       -0.0034417003	
        2.6770000000	       -0.0000000000	        0.0000000000	        0.0000000000	        0.1988394961	        0.0000558755	       -0.3004071324	       -0.0000000000	        0.0000000000	        0.0000000000	       -0.0000000000	        0.0000000000	        0.0000000000	        0.2029003516	       -0.0000795827	        0.4543649445	       -0.0000000000	       -0.0000000000	        0.0000000000	        0.0002215815	        0.0441742563	       -0.0013036337	        0.2076431971	        0.0000770316	        1.3583900146	        0.0072567594	       -0.0000591239	       -0.0033434201	
        2.6780000000	       -0.0000000000	        0.0000000000	        0.0000000000	        0.1988394961	        0.0000558755	       -0.3004071324	       -0.0000000000	        0.0000000000	        0.0000000000	       -0.0000000000	        0.0000000000	        0.0000000000	        0.2029003516	       -0.0000795827	        0.4543649445	       -0.0000000000	       -0.0000000000	        0.0000000000	        0.0002652638	        0.0405344442	       -0.0019730167	        0.2076431971	        0.0000770316	        1.3583900146	        0.0066643709	       -0.0001293812	       -0.0030671681	
        2.6790000000	       -0.0000000000	        0.0000000000	        0.0000000000	        0.1988394961	        0.0000558755	       -0.3004071324	       -0.0000000000	        0.0000000000	        0.0000000000	       -0.0000000000	        0.0000000000	        0.0000000000	        0.2029003516	       -0.0000795827	        0.4543649445	       -0.0000000000	       -0.0000000000	        0.0000000000	        0.0002782843	        0.0355236587	       -0.0023036514	        0.2076431971	        0.0000770316	        1.3583900146	        0.0058446357	       -0.0001689542	       -0.0026874450	
        2.6800000000	       -0.0000000000	        0.0000000000	        0.0000000000	        0.1988394961	        0.0000558755	       -0.3004071324	       -0.0000000000	        0.0000000000	        0.0000000000	       -0.0000000000	        0.0000000000	        0.0000000000	        0.2029003516	       -0.0000795827	        0.4543649445	       -0.0000000000	       -0.0000000000	        0.0000000000	        0.0002696794	        0.0298964795	       -0.0023836625	        0.2076431971	        0.0000770316	        1.3583900146	        0.0049219829	       -0.0001852221	       -0.0022612978	
        2.6810000000	       -0.0000000000	        0.0000000000	        0.0000000000	        0.1988394961	        0.0000558755	       -0.3004071324	       -0.0000000000	        0.0000000000	        0.0000000000	       -0.0000000000	        0.0000000000	        0.0000000000	        0.2029003516	       -0.0000795827	        0.4543649445	       -0.0000000000	       -0.0000000000	        0.0000000000	        0.0002469371	        0.0242036557	       -0.0022885663	        0.2076431971	        0.0000770316	        1.3583900146	        0.0039873103	       -0.0001846539	       -0.0018303528	
        2.6820000000	       -0.0000000000	        0.0000000000	        0.0000000000	        0.1988394961	        0.0000558755	       -0.3004071324	       -0.0000000000	        0.0000000000	        0.0000000000	       -0.0000000000	        0.0000000000	        0.0000000000	        0.2029003516	       -0.0000795827	        0.4543649445	       -0.0000000000	       -0.0000000000	        0.0000000000	        0.0002160254	        0.0188230825	       -0.0020805891	        0.2076431971	        0.0000770316	        1.3583900146	        0.0031030615	       -0.0001726949	       -0.0014231615	
